# xmcd
#
# Track frame offsets:
#	150
#	7137
#	31220
#	54312
#	68342
#	87387
#	101555
#	121632
#	128705
#	152762
#	166775
#	185865
#	200012
#
# Disc length: 2934 seconds
#
# Revision: 1
# Processed by: cddbd v1.5.1PL0 Copyright (c) Steve Scherf et al.
# Submitted via: CDex 1.50Beta5
#
DISCID=a30b740d
DTITLE=サウンドトラック - 「明日のナージャ」ザ・ソング・アラウンド・ザ・ワールド
DYEAR=1900
DGENRE=
TTITLE0=本田美奈子/ナージャ!!(TVサイズ)
TTITLE1=小清水亜美、他ダンデライオン一座/ダンデライオンのテーマ
TTITLE2=本田美奈子/etoile-星-
TTITLE3=山本耕史/夜の雨(ラファエルズ ソング)
TTITLE4=本田美奈子/飛べない天使(ラファエル&シルヴィ ソング)
TTITLE5=折笠富美子/アデュー巴里
TTITLE6=小清水亜美/♪傘
TTITLE7=小清水亜美/けせら・せら
TTITLE8=ダンデライオンのテーマ
TTITLE9=夜の雨(ラファエルズ ソング)
TTITLE10=飛べない天使(ラファエル&シルヴィ ソング)
TTITLE11=アデュー巴里
TTITLE12=♪傘
EXTD=
EXTT0=
EXTT1=
EXTT2=
EXTT3=
EXTT4=
EXTT5=
EXTT6=
EXTT7=
EXTT8=
EXTT9=
EXTT10=
EXTT11=
EXTT12=
PLAYORDER=
